<?xml version="1.0" encoding="UTF-8"?>
<svg id="_图层_1" data-name="图层_1" xmlns="http://www.w3.org/2000/svg" version="1.1" viewBox="0 0 24 24">
  <!-- Generator: Adobe Illustrator 30.1.0, SVG Export Plug-In . SVG Version: 2.1.1 Build 136)  -->
  <defs>
    <style>
      .st0 {
        fill: #e3e3e3;
      }
    </style>
  </defs>
  <path class="st0" d="M4,20c-.55,0-1.02-.2-1.41-.59s-.59-.86-.59-1.41V6c0-.55.2-1.02.59-1.41s.86-.59,1.41-.59h16c.55,0,1.02.2,1.41.59s.59.86.59,1.41v12c0,.55-.2,1.02-.59,1.41s-.86.59-1.41.59H4ZM20,6H4v12h16V6ZM4,6v12V6ZM9,15v-6l-3,3,3,3ZM18,12l-3-3v6l3-3Z"/>
</svg>