<?xml version="1.0" encoding="UTF-8"?>
<svg id="_图层_1" data-name="图层_1" xmlns="http://www.w3.org/2000/svg" version="1.1" viewBox="0 0 24 24">
  <!-- Generator: Adobe Illustrator 30.1.0, SVG Export Plug-In . SVG Version: 2.1.1 Build 136)  -->
  <defs>
    <style>
      .st0 {
        fill: #e3e3e3;
      }
    </style>
  </defs>
  <polygon class="st0" points="19.25 12 16.25 15 16.25 9 19.25 12"/>
  <polygon class="st0" points="4.75 12 7.75 15 7.75 9 4.75 12"/>
  <path class="st0" d="M19.8,2.08H4.2c-1.17,0-2.12.95-2.12,2.12v15.61c0,1.17.95,2.12,2.12,2.12h15.61c1.17,0,2.12-.95,2.12-2.12V4.2c0-1.17-.95-2.12-2.12-2.12ZM20,20H4V4h16v16Z"/>
  <polygon class="st0" points="12 19.08 9 16.08 15 16.08 12 19.08"/>
  <polygon class="st0" points="12 4.92 9 7.92 15 7.92 12 4.92"/>
</svg>